<?xml version="1.0" encoding="utf-8"?>
<!-- Generator: Adobe Illustrator 16.0.4, SVG Export Plug-In . SVG Version: 6.00 Build 0)  -->
<!DOCTYPE svg PUBLIC "-//W3C//DTD SVG 1.1//EN" "http://www.w3.org/Graphics/SVG/1.1/DTD/svg11.dtd">
<svg version="1.1" id="Layer_1" xmlns="http://www.w3.org/2000/svg" xmlns:xlink="http://www.w3.org/1999/xlink" x="0px" y="0px"
	 width="1392.187px" height="347.329px" viewBox="0 0 1392.187 347.329" enable-background="new 0 0 1392.187 347.329"
	 xml:space="preserve">
<path fill="#F4F2F3" d="M368.687,204.633c0.799-4.412,1.345-8.904,1.604-13.48c0.1-3.598-0.032-7.213-0.418-10.833
	c-0.386-3.618-1.023-7.243-1.938-10.86c-0.461-1.685-0.968-3.401-1.516-5.153c-6.604-17.921-23.861-30.576-42.175-34.239
	c-3.718-0.809-7.481-1.32-11.257-1.512c-7.436-0.396-14.93,0.385-22.094,2.431c-2.274,0.588-4.507,1.29-6.684,2.106
	c-7.163,2.593-13.772,6.127-19.82,10.233c-18.15,12.32-31.261,29.802-39.182,42.56c0.226-2.941,0.354-6.225,0.326-9.838
	c-0.028-3.617-0.212-7.567-0.61-11.846c-2.187-17.942-6.169-35.792-12.108-52.979c-1.485-4.299-3.092-8.554-4.824-12.753
	c-14.421-36.069-38.006-70.009-72.953-88.174c-2.641-1.294-5.332-2.469-8.09-3.517c-2.759-1.045-5.584-1.964-8.484-2.75
	c-4.37-1.269-8.812-2.243-13.288-2.915C78.33-2.919,50.263,3.857,30.312,23.906c-2.336,2.303-4.552,4.75-6.642,7.309
	C13.237,44.026,5.917,59.629,2.692,75.818c-0.956,4.498-1.641,9.027-2.084,13.566C0.167,93.927-0.031,98.48,0,103.039
	c0.085,4.276,0.334,8.548,0.709,12.805c1.442,17.741,5.343,35.285,11.345,52.085c3,8.398,6.528,16.613,10.532,24.589
	c16.24,35.551,45.002,63.164,77.966,83.275c7.382,4.916,14.856,9.75,22.352,14.553c14.988,9.604,30.07,19.066,44.698,29.082
	c5.001,3.707,12.715,9.443,19.896,14.873c7.181,5.43,13.829,10.553,16.702,13.025c0,0,2.183-1.383,5.395-3.369
	c1.607-0.994,3.471-2.129,5.453-3.295c2.908-1.67,5.865-3.209,8.864-4.664c0.438-0.219,0.887-0.432,1.331-0.648
	c2.454-1.049,30.113-12.889,39.73-17.975c0,0,4.254-2.141,10.444-5.562c6.287-3.246,12.406-6.83,18.325-10.723
	c14.662-9.473,27.803-21.326,39.391-34.562c2.472-2.674,4.878-5.404,7.207-8.193C365.43,229.057,368.351,208.647,368.687,204.633z
	 M203.273,318.061c-1.578-1.082-3.161-2.158-4.745-3.232c-9.732-6.594-19.573-13.064-29.094-19.32
	c-5.219-3.43-10.489-6.891-15.762-10.373c-7.217-4.639-14.333-9.332-21.354-14.127c-7.024-4.795-13.957-9.691-20.814-14.703
	c-29.534-21.334-61.172-46.068-67.074-84.691c-1.521-7.907-2.144-15.979-1.854-23.964c0.291-7.984,1.494-15.88,3.624-23.435
	c0.992-3.673,2.187-7.287,3.587-10.821c1.4-3.534,3.002-6.993,4.811-10.35c2.168-3.683,4.636-7.164,7.409-10.396
	c2.772-3.233,5.845-6.218,9.227-8.901c9.458-7.713,21.304-11.563,33.228-11.325c2.98,0.06,5.969,0.374,8.928,0.951
	c8.278,2.14,16.286,5.339,23.898,9.307c2.538,1.325,5.032,2.733,7.478,4.215c30.97,16.348,51.104,47.985,57.434,81.944
	c0.754,3.545,1.021,5.616,1.021,5.616l0.013-0.003c2.007,15.654-0.876,31.773-10.02,44.982c-3.409,4.137-7.883,7.369-13.746,8.998
	c-3.256,0.561-6.724,0.373-10.303-0.479c-3.58-0.85-7.27-2.365-10.97-4.465c3.35-5.992,5.821-11.939,7.572-17.754
	c0.58-1.938,1.09-3.861,1.516-5.775c3.61-11.764,3.217-24.188-0.114-35.858c-0.333-1.166-0.696-2.324-1.087-3.476
	c-1.329-3.053-2.744-6.167-4.333-9.188c-1.59-3.021-3.353-5.953-5.378-8.644c-2.026-2.692-4.317-5.146-6.959-7.208
	c-2.643-2.063-5.64-3.737-9.079-4.87c-1.469-0.469-2.935-0.811-4.398-1.026c-10.228-1.512-20.176,3.158-27.453,13.08
	c-3.683,5.025-6.307,11.124-7.856,17.932c-1.549,6.811-2.023,14.33-1.406,22.191c1.732,21.594,10.936,42.877,25.359,59.635
	c3.09,3.641,6.464,7.135,10.121,10.439c1.35,1.223,2.723,2.379,4.115,3.486c5.914,4.57,11.619,7.707,16.716,9.855
	c5.098,2.148,9.583,3.312,13.059,3.941c11.106,1.547,22.09-1.084,31.703-9.068c1.56-1.291,3.08-2.734,4.564-4.314
	c0.693,2.764,1.737,5.482,3.195,8.123c0.749,1.635,1.583,3.135,2.497,4.506c4.568,6.857,11.124,10.504,18.616,11.471
	c4.75,0.422,12.552,0.174,22.072-3.639c1.126-0.469,2.251-0.971,3.376-1.521c1.902-0.932,3.747-1.926,5.532-2.982
	c5.326-3.336,9.929-7.363,14.405-11.014c3.685-4.344,7.419-9.029,10.703-13.998c3.285-4.971,6.115-10.225,7.993-15.703
	c1.877-5.477,2.799-11.182,2.267-17.055c-0.239-2.023-0.673-3.963-1.306-5.791c-2.659-7.697-8.125-12.477-15.044-13.311
	c-0.988-0.119-2.007-0.158-3.052-0.117c-9.821,0.496-16.835,7.812-22.784,14.762c-0.488,0.676-0.962,1.357-1.416,2.051
	c-4.551,6.951-7.361,14.908-7.448,23.146c-0.119,1.312-0.183,2.645-0.208,3.998c-0.065,4.064,0.312,8.346,1.241,12.812
	c-2.821,0.699-5.517,1.023-8.005,0.939c-2.485-0.084-4.764-0.576-6.751-1.516c-3.454-2.09-5.678-4.971-7.033-8.25
	c-3.187-10.15-1.736-21.074,2.78-30.83l0.006,0.004c0,0,4.252-9.17,13.142-19.514c4.444-5.172,10.048-10.639,16.86-15.402
	c8.443-6.115,18.77-10.605,29.528-12.338c5.382-0.866,10.873-1.042,16.303-0.38c7.083,0.593,13.274,3.544,18.381,7.965
	c1.82,1.463,3.463,3.079,4.943,4.825c2.042,2.65,3.774,5.426,5.216,8.301c1.44,2.871,2.59,5.84,3.469,8.871
	c1.153,4.584,1.786,9.203,1.948,13.797l-0.054,0.01c-2.39,39.443-34.996,66.053-54.815,78.688c-0.162,0.078-0.327,0.158-0.494,0.232
	c-4.336,2.461-8.968,4.738-13.215,6.684c-8.498,3.891-15.461,6.436-15.461,6.436l0.105,0.033c-0.063,0.023-0.13,0.047-0.194,0.068
	c-1.57,0.564-3.133,1.129-4.692,1.693c-1.558,0.566-3.111,1.133-4.66,1.701c-8.966,3.406-18.747,6.857-28.081,10.342
	c-1.41,0.576-2.751,1.146-4.049,1.717c-1.962,0.867-3.807,1.73-5.584,2.609C204.514,318.87,203.89,318.436,203.273,318.061z
	 M145.416,213.928c-16.446-14.871-27.128-36.943-20.988-45.317c3.948-5.387,8.666-4.111,13.484,0.251
	C148.12,178.086,152.598,197.047,145.416,213.928z M269.833,220.909c4.012-1.969,7.321-1.953,8.763,2.223
	c2.247,6.498-9.194,18.865-22.875,25.557C254.551,236.512,261.341,225.057,269.833,220.909z"/>
<g>
	<path fill="#EF3E6D" d="M272.23,211.404c-4.383,3.061-12.23,7.914-22.952,7.841c-15.446-0.104-21.559-9.778-22.206-21.599
		c21.448-0.031,51.823-4.549,52.014-32.538c0.112-16.171-11.639-25.342-29.45-25.458c-27.136-0.186-42.198,19.305-44.818,43.096
		l-9.152-0.062c-2.029-0.016-3.684,1.262-3.698,2.854l-0.053,8.647c-0.015,1.592,1.623,2.893,3.655,2.903l9.1,0.064
		c1.907,23.137,14.273,38.785,42.312,38.976c17.079,0.117,29.125-7.431,32.051-9.956L272.23,211.404z M248.263,155.089
		c6.54,0.041,10.875,3.522,10.828,10.249c-0.095,13.991-19.198,16.953-32.643,17.042
		C227.083,168.938,233.723,154.988,248.263,155.089z"/>
	<path fill="#EF3E6D" d="M375.002,216.508l0.461-67.829c-13.089-5.015-26.394-6.567-32.414-6.604
		c-32.818-0.228-48.271,20.093-48.49,52.183c-0.174,26.076,10.459,44.382,36.166,44.561c10.032,0.065,19.356-4.797,25.073-12.965
		l0.544,0.185l-0.078,10.579l28.992,0.197l0.103-14.584l-5.832-0.408C376.064,221.619,374.977,220.519,375.002,216.508z
		 M353.917,207.608c-0.053,7.844-7.036,15.816-18.343,15.739c-15.318-0.101-18.865-14.53-18.762-29.665
		c0.131-19.693,6.082-35.881,23.399-35.764c5.655,0.038,11.302,1.172,14.025,2.468L353.917,207.608z"/>
	<path fill="#EF3E6D" d="M438.232,181.927c-8.554-2.427-17.292-5.042-17.235-13.429c0.05-7.293,5.912-10.902,13.752-10.847
		c4.373,0.029,7.109,0.414,10.562,1.714c3.277,1.297,4.175,2.76,4.152,6.223l-0.054,7.66l16.422-1.163l0.146-21.879
		c-7.086-3.516-17.816-7.417-30.217-7.501c-19.141-0.128-35.256,9.787-35.388,28.749c-0.136,20.242,14.601,24.902,28.069,28.46
		c9.831,2.617,17.84,4.316,17.782,13.064c-0.05,7.657-5.359,11.087-14.479,11.025c-4.371-0.028-8.565-0.606-12.021-1.902
		c-3.276-1.299-4.176-2.766-4.154-6.23l0.061-8.754l-16.42,1.168l-0.173,25.346c7.633,3.883,22.023,5.803,33.509,5.878
		c19.515,0.134,35.267-9.972,35.394-28.935C468.079,190.7,452.427,186.034,438.232,181.927z"/>
	<path fill="#EF3E6D" d="M540.851,220.004c-2.924,1.807-7.495,3.778-12.42,3.744c-7.475-0.051-11.832-3.361-11.751-14.482
		l0.325-47.958l22.427,0.154l1.926-15.302l-24.249-0.167l0.133-19.326l-11.853-0.08c-3.904,10.367-8.337,20.183-21.112,21.191
		l-1.917,13.293l12.946,0.089l-0.329,48.688c-0.089,12.761-0.392,30.266,28.048,30.46c8.573,0.055,17.709-2.433,23.207-6.226
		L540.851,220.004z"/>
	<g>
		<path fill="#EF3E6D" d="M1018.53,132.399c-4.812-0.034-7.229,3.259-15.707,6.814c3.975-10.2,7.188-19.507,8.676-27.624
			c2.314-12.617-1.551-21.073-12.689-21.148c-13.24-0.089-20.824,10.091-23.25,23.314c-2.32,12.619-4.898,23.435-7.865,33.044
			l-4.812-0.034c-7.529-0.052-13.359,3.82-14.678,11.031c-0.877,4.756,0.83,8.344,12.273,9.665
			c-0.666,1.228-1.354,2.456-2.023,3.631c-7.385,17.959-19.002,33.812-33.822,45.024c-1.852,1.278-3.758,2.474-5.738,3.556
			c-3.963,2.181-8.197,3.957-12.744,5.213c-4.057,1.129-8.277,1.881-12.65,2.148c-1.914-0.021-3.666-0.268-5.258-0.726
			c-7.934-2.279-11.953-9.83-12.373-19.862c5.58-0.628,10.752-1.802,15.52-3.371c1.592-0.523,3.139-1.089,4.646-1.702
			c9.676-3.135,18.092-9.143,24.725-16.688c1.322-1.506,2.574-3.074,3.756-4.695c1.381-2.635,2.967-5.267,4.438-8.036
			c1.469-2.768,2.83-5.674,3.762-8.84c0.314-1.645,0.445-3.347,0.318-5.105c-0.012-2.147-0.262-4.146-0.756-5.997
			c-2.438-9.26-10.609-14.759-22.014-14.834c-25.275-0.174-57.754,29.093-64.857,67.859c-0.385,2.109-0.668,4.188-0.848,6.239
			c-6.309,3.679-16.252,15.309-33.213,15.195c-12.928-0.091-19.213-8.559-20.01-20.601c35.068-3.974,54.137-29.12,56.615-42.639
			c2.975-16.227-6.582-26.527-22.221-26.629c-25.285-0.176-57.758,29.095-64.867,67.861c-4.633,25.241,5.246,46.973,33.223,47.162
			c22.324,0.147,41.625-14.524,51.086-25.777c2.949,15.301,13.67,26.216,33.457,26.351c3.867,0.025,7.529-0.402,10.973-1.189
			c1.723-0.392,3.387-0.872,5.012-1.431c4.137-1.889,8.201-3.925,12.135-6.13c6.988-3.421,13.596-7.869,19.637-13.082
			c1.512-1.305,2.982-2.655,4.424-4.045c4.736-4.571,9.004-9.535,12.93-14.758c-1.701,5.323-3.154,10.77-4.215,16.586
			c-2.646,14.423,4.098,28.61,22.746,28.734c27.377,0.191,49.354-27.644,50.898-36.058c0.656-3.605-0.521-5.419-3.523-5.44
			c-5.723-0.04-12.662,16.461-26.199,16.368c-5.42-0.038-11.074-3.684-9.363-12.999c2.869-15.631,9.836-33.936,17.242-51.339
			c15.781-2.3,31.688-8.507,34.664-24.737C1027.14,136.368,1023.642,132.433,1018.53,132.399z M899.263,159.369
			c5.42,0.037,6.57,3.655,5.627,8.765c-1.984,10.816-13.158,22.474-27.91,25.688C880.179,176.387,890.837,159.309,899.263,159.369z
			 M814.729,158.793c5.408,0.038,6.551,3.653,5.619,8.767c-1.986,10.819-13.16,22.471-27.906,25.685
			C795.638,175.811,806.294,158.734,814.729,158.793z"/>
		<path fill="#EF3E6D" d="M761.778,146.254c-3.289-7.117-11.236-9.828-19.299-10.324c-1.08,0.013-2.164,0.123-3.254,0.324
			c-1.096,0.152-2.213,0.391-3.35,0.705c-15.803,4.396-34.607,24.304-59.268,56.372c2.605-4.909,5.52-10.091,8.299-15.015
			c4.008-7.127,7.885-14.015,10.695-19.777c0.936-1.922,1.76-3.717,2.43-5.358c0.467-1.176,0.713-2.274,0.768-3.297
			c-1.355-12.93-18.166-14.818-28.402-12.058c-1.078,0.331-2.115,0.742-3.09,1.239c-0.803,0.352-1.611,0.738-2.42,1.166
			c-17.055,8.951-37.508,34.335-56.764,60.542c4.23-11.162,11.072-22.076,17.322-32.04c1.621-2.595,3.223-5.143,4.756-7.652
			c1.529-2.51,2.988-4.984,4.336-7.405c2.766-4.063,4.859-8.345,4.963-12.506c0.043-1.386-0.141-2.755-0.58-4.107
			c-5.111-12.93-23.685-14.827-31.953-3.583c-1.053,1.175-2.029,2.436-2.947,3.735c-1.836,2.593-3.457,5.375-4.988,8.07
			c-0.621,1.265-1.207,2.527-1.786,3.761c-0.578,1.229-1.14,2.439-1.702,3.6c-0.532,1.026-1.058,2.062-1.584,3.1
			c-6.272,12.484-11.953,25.37-15.94,37.958c-3.881,12.079-6.504,25.152-6.845,34.118l-0.011,0.3l0.056,0.288
			c0.207,1.097,0.42,2.188,0.655,3.266c0.31,1.477,0.74,3.083,1.278,4.702c2.337,5.943,5.801,15.701,13.781,13.983
			c12.396-1.686,14.271-16.711,21.39-25.213c1.526-2.394,3.07-4.779,4.684-7.147c2.861-3.952,5.73-7.779,8.567-11.462
			c14.187-18.394,27.683-32.992,36.573-39.716c-12.223,18.724-18.807,34.587-22.674,47.843c-0.32,1.104-0.629,2.189-0.904,3.264
			c-1.508,3.443-2.328,7.136-2.428,10.79c-0.029,1.222,0.018,2.438,0.154,3.644c0.471,5.626,3.654,12.157,8.533,15.995
			c0.814,0.646,1.68,1.213,2.578,1.683c10.754,4.317,16.139-7.148,20.537-14.281c0.629-1.01,1.254-1.972,1.869-2.866
			c0.637-0.888,1.266-1.701,1.9-2.412c0.674-0.936,1.383-1.894,2.111-2.871c0.723-0.979,1.461-1.982,2.217-3.001
			c13.6-18.394,32.215-42.904,43.637-50.854c-0.199,0.376-0.4,0.764-0.602,1.152c-7.15,13.856-16.938,32.834-17.066,52.359
			c-0.129,17.979,8.113,27.933,23.188,28.037c2.418,0.013,4.699-0.265,6.848-0.772c1.084-0.255,2.133-0.565,3.162-0.927
			c6.16-3.106,15.908-4.81,14.207-13.669c-0.879-1.779-1.744-3.559-3.518-4.454c-4.416-0.909-7.984,3.491-12.354,1.604
			c-0.262-0.362-0.469-0.905-0.605-1.728c-0.131-0.815-0.197-1.909-0.186-3.357c0.26-14.678,10.568-36.003,19.662-54.819
			c1.68-3.456,3.312-6.852,4.844-10.1c0.383-0.813,0.756-1.617,1.121-2.413c0.369-0.796,0.727-1.581,1.078-2.354
			c0.326-0.771,0.666-1.534,0.986-2.287c0.348-1.068,0.883-2.271,1.512-3.583c0.332-0.784,0.695-1.539,1.055-2.278
			c1.164-2.629,2.061-4.394,2.928-6.922L761.778,146.254z"/>
	</g>
	<g>
		<path fill="#EF3E6D" d="M1116.048,218.319c-4.387,3.058-12.242,7.91-22.959,7.837c-15.451-0.102-21.564-9.777-22.201-21.596
			c21.441-0.037,51.826-4.551,52.016-32.537c0.107-16.173-11.646-25.34-29.451-25.457c-27.143-0.188-42.205,19.297-44.816,43.094
			l-9.154-0.064c-2.033-0.014-3.684,1.264-3.697,2.855l-0.061,8.646c-0.004,1.593,1.625,2.894,3.654,2.908l9.102,0.06
			c1.912,23.135,14.275,38.785,42.311,38.979c17.088,0.115,29.133-7.431,32.057-9.962L1116.048,218.319z M1092.071,162.002
			c6.537,0.042,10.879,3.52,10.838,10.244c-0.098,13.994-19.203,16.956-32.652,17.046
			C1070.897,175.846,1077.53,161.9,1092.071,162.002z"/>
		<path fill="#EF3E6D" d="M1218.815,223.419l0.473-67.83c-13.105-5.011-26.402-6.562-32.424-6.603
			c-32.818-0.223-48.271,20.093-48.494,52.184c-0.174,26.076,10.467,44.382,36.168,44.555c10.029,0.07,19.367-4.789,25.074-12.957
			l0.539,0.185l-0.07,10.578l28.998,0.195l0.094-14.584l-5.834-0.405C1219.876,228.533,1218.79,227.43,1218.815,223.419z
			 M1197.728,214.519c-0.059,7.844-7.039,15.821-18.35,15.742c-15.309-0.104-18.859-14.532-18.754-29.663
			c0.129-19.696,6.076-35.886,23.395-35.77c5.662,0.042,11.305,1.174,14.025,2.47L1197.728,214.519z"/>
		<path fill="#EF3E6D" d="M1282.046,188.839c-8.559-2.429-17.289-5.042-17.229-13.43c0.045-7.297,5.902-10.9,13.75-10.847
			c4.373,0.025,7.1,0.41,10.555,1.714c3.273,1.298,4.178,2.763,4.156,6.229l-0.049,7.658l16.416-1.165l0.145-21.879
			c-7.084-3.516-17.822-7.417-30.217-7.503c-19.139-0.125-35.256,9.79-35.383,28.751c-0.146,20.239,14.598,24.9,28.068,28.458
			c9.83,2.62,17.84,4.312,17.779,13.066c-0.053,7.661-5.367,11.089-14.48,11.024c-4.373-0.028-8.562-0.604-12.021-1.906
			c-3.273-1.301-4.176-2.761-4.146-6.229l0.057-8.75l-16.424,1.16l-0.17,25.346c7.639,3.884,22.021,5.805,33.51,5.885
			c19.516,0.132,35.26-9.971,35.395-28.936C1311.888,197.612,1296.235,192.95,1282.046,188.839z"/>
		<path fill="#EF3E6D" d="M1386.81,226.931c-2.924,1.802-7.496,3.779-12.422,3.744c-7.479-0.048-11.834-3.359-11.756-14.483
			l0.328-47.956l22.424,0.152l1.926-15.305l-24.25-0.162l0.137-19.325l-11.855-0.086c-3.895,10.37-8.34,20.187-21.115,21.196
			l-1.912,13.295l12.945,0.088l-0.328,48.681c-0.09,12.766-0.389,30.269,28.049,30.464c8.578,0.058,17.713-2.435,23.207-6.225
			L1386.81,226.931z"/>
	</g>
</g>
<g>
</g>
<g>
</g>
<g>
</g>
<g>
</g>
<g>
</g>
<g>
</g>
</svg>
