<?xml version="1.0" encoding="utf-8"?>
<!-- Generator: Adobe Illustrator 23.0.6, SVG Export Plug-In . SVG Version: 6.00 Build 0)  -->
<svg version="1.1" id="Layer_1" xmlns="http://www.w3.org/2000/svg" xmlns:xlink="http://www.w3.org/1999/xlink" x="0px" y="0px"
	 viewBox="0 0 100 150" style="enable-background:new 0 0 100 150;" xml:space="preserve">
<style type="text/css">
	.st0{fill:#FFFFFF;stroke:#F9B3FF;stroke-width:0.5;stroke-miterlimit:10;}
</style>
<path class="st0" d="M46.63,65.76c0,0,0.08-3.06,3.37-3.29c3.29-0.23,3.57,3.29,3.57,3.29s0.08,2.98-3.22,3.53
	C50.35,69.29,46.98,69.56,46.63,65.76z"/>
<path class="st0" d="M48.4,70.14c0,0,1.82,0.85,3.53,0c0,0,1.67-0.53,2.13,0.54c0.11,0.26,0.23,0.51,0.38,0.75l3.35,5.42
	c0,0,0.52,0.61-0.19,1.06c-0.15,0.09-0.29,0.2-0.43,0.31l-0.02,0.01c0,0-0.71,0.57-1-0.22l-1.9-3.02c0,0-0.81-0.88-0.54,0.35
	l2.36,6.78c0,0,0.7,1.2-0.5,0.85l-1.78,0.06c0,0-0.27-0.02-0.21,0.71v4.03c0,0-0.06,0.47-0.6,0.47h-1.16c0,0-0.7,0.19-0.78-0.7
	l-0.08-4.11c0,0,0.19-0.5-0.43-0.39l-0.66-0.08c0,0-0.5,0.08-0.5,0.39l0.08,4.3c0,0-0.16,0.7-0.62,0.58h-1.4c0,0-0.5,0.08-0.58-0.58
	v-4.03c0,0,0.16-0.74-0.62-0.58h-1.74c0,0-0.5,0.04-0.31-0.66l2.64-7.4c0,0-0.16-0.89-0.74-0.04l-1.78,3.06c0,0-0.19,0.62-0.81,0.27
	l-0.85-0.43c0,0-0.39-0.27,0-0.81l3.76-6.51C46.38,70.53,46.88,69.77,48.4,70.14z"/>
</svg>
