<?xml version="1.0" encoding="utf-8"?>
<!-- Generator: Adobe Illustrator 23.0.6, SVG Export Plug-In . SVG Version: 6.00 Build 0)  -->
<svg version="1.1" id="Layer_1" xmlns="http://www.w3.org/2000/svg" xmlns:xlink="http://www.w3.org/1999/xlink" x="0px" y="0px"
	 viewBox="0 0 100 150" style="enable-background:new 0 0 100 150;" xml:space="preserve">
<style type="text/css">
	.st0{fill:#FFFFFF;stroke:#8DE4FF;stroke-width:0.5;stroke-miterlimit:10;}
</style>
<path class="st0" d="M46.48,65.41c0,0,0.08-3.06,3.37-3.29c3.29-0.23,3.57,3.29,3.57,3.29s0.08,2.98-3.22,3.53
	C50.2,68.94,46.83,69.21,46.48,65.41z"/>
<path class="st0" d="M46.09,70.26c0,0,0.54-1.12,2.6-0.27c0,0,1.2,0.34,2.79-0.02c0,0,1.4-0.91,2.33,0.3l3.91,6.55
	c0,0,0.35,0.35-0.19,0.62l-0.34,0.21c-0.07,0.04-0.14,0.1-0.2,0.15c-0.09,0.08-0.26,0.17-0.33,0.23c-0.09,0.08-0.44,0.13-0.72-0.32
	l-2.05-3.35c0,0-0.55-0.41-0.47,0.21v12.79c0,0-0.23,0.7-0.62,0.5l-1.43,0.03c0,0-0.54-0.03-0.54-0.73l-0.12-6.05
	c0,0,0.19-0.35-0.31-0.23h-1.09c0,0-0.43-0.16-0.43,0.43v5.85c0,0,0.23,0.8-0.66,0.73l-0.89,0c0,0-0.74,0.08-0.85-0.62v-12.6
	c0,0,0.16-0.89-0.62-0.23l-1.94,3.22c0,0-0.04,0.47-0.7,0.27l-0.81-0.47c0,0-0.54-0.39,0-1.01L46.09,70.26z"/>
</svg>
