<?xml version="1.0" encoding="utf-8"?>
<!-- Generator: Adobe Illustrator 23.0.6, SVG Export Plug-In . SVG Version: 6.00 Build 0)  -->
<svg version="1.1" id="Layer_1" xmlns="http://www.w3.org/2000/svg" xmlns:xlink="http://www.w3.org/1999/xlink" x="0px" y="0px"
	 viewBox="0 0 100 100" style="enable-background:new 0 0 100 100;" xml:space="preserve">
<style type="text/css">
	.st0{fill:#FFFFFF;stroke:#F9B3FF;stroke-width:0.5;stroke-miterlimit:10;}
</style>
<path class="st0" d="M39.15,20.85c0,0,0.24-9.3,10.24-10.01c10.01-0.71,10.84,10.01,10.84,10.01s0.24,9.07-9.77,10.71
	C50.45,31.56,40.21,32.38,39.15,20.85z"/>
<path class="st0" d="M44.5,34.15c0,0,5.53,2.59,10.71,0c0,0,5.08-1.62,6.46,1.63c0.33,0.78,0.69,1.56,1.14,2.28L73,54.52
	c0,0,1.58,1.86-0.57,3.21c-0.45,0.29-0.88,0.61-1.3,0.94l-0.05,0.04c0,0-2.15,1.73-3.02-0.65l-5.77-9.19c0,0-2.47-2.68-1.65,1.07
	l7.19,20.59c0,0,2.12,3.65-1.53,2.59l-5.42,0.19c0,0-0.83-0.08-0.64,2.16v12.25c0,0-0.17,1.43-1.83,1.42h-3.54
	c0,0-2.12,0.58-2.35-2.13l-0.24-12.48c0,0,0.59-1.53-1.3-1.18l-2-0.24c0,0-1.53,0.24-1.53,1.18l0.24,13.06c0,0-0.47,2.13-1.88,1.78
	h-4.24c0,0-1.53,0.23-1.77-1.78V75.12c0,0,0.47-2.24-1.88-1.77h-5.3c0,0-1.53,0.12-0.94-2l8-22.49c0,0-0.47-2.71-2.24-0.12
	l-5.42,9.3c0,0-0.59,1.88-2.47,0.83l-2.59-1.3c0,0-1.18-0.83,0-2.47l11.42-19.78C38.39,35.33,39.89,33.04,44.5,34.15z"/>
</svg>
