<?xml version="1.0" encoding="utf-8"?>
<!-- Generator: Adobe Illustrator 23.0.6, SVG Export Plug-In . SVG Version: 6.00 Build 0)  -->
<svg version="1.1" id="Layer_1" xmlns="http://www.w3.org/2000/svg" xmlns:xlink="http://www.w3.org/1999/xlink" x="0px" y="0px"
	 viewBox="0 0 100 100" style="enable-background:new 0 0 100 100;" xml:space="preserve">
<style type="text/css">
	.st0{fill:#FFFFFF;stroke:#8DE4FF;stroke-width:0.5;stroke-miterlimit:10;}
</style>
<path class="st0" d="M39.3,20.86c0,0,0.24-9.31,10.25-10.01s10.84,10.01,10.84,10.01s0.24,9.07-9.78,10.72
	C50.61,31.58,40.36,32.4,39.3,20.86z"/>
<path class="st0" d="M38.12,35.58c0,0,1.65-3.42,7.89-0.82c0,0,3.65,1.03,8.48-0.07c0,0,4.24-2.75,7.07,0.9l11.9,19.91
	c0,0,1.06,1.06-0.59,1.88l-1.04,0.64c-0.22,0.14-0.42,0.3-0.61,0.47c-0.29,0.25-0.8,0.51-1,0.69c-0.26,0.23-1.33,0.4-2.19-0.97
	l-6.22-10.19c0,0-1.67-1.24-1.44,0.65v38.88c0,0-0.71,2.12-1.89,1.53l-4.36,0.1c0,0-1.65-0.1-1.65-2.22l-0.35-18.38
	c0,0,0.59-1.06-0.94-0.71h-3.3c0,0-1.3-0.47-1.3,1.3v17.79c0,0,0.71,2.44-2,2.22l-2.71,0.01c0,0-2.24,0.24-2.59-1.88V49.01
	c0,0,0.47-2.71-1.88-0.71l-5.89,9.78c0,0-0.12,1.41-2.12,0.82l-2.47-1.41c0,0-1.65-1.18,0-3.06L38.12,35.58z"/>
</svg>
